<?xml version="1.0" encoding="UTF-8" standalone="no"?>
<!-- Created with Inkscape (http://www.inkscape.org/) -->

<svg
   xmlns:dc="http://purl.org/dc/elements/1.1/"
   xmlns:cc="http://creativecommons.org/ns#"
   xmlns:rdf="http://www.w3.org/1999/02/22-rdf-syntax-ns#"
   xmlns:svg="http://www.w3.org/2000/svg"
   xmlns="http://www.w3.org/2000/svg"
   xmlns:sodipodi="http://sodipodi.sourceforge.net/DTD/sodipodi-0.dtd"
   xmlns:inkscape="http://www.inkscape.org/namespaces/inkscape"
   width="117.48286"
   height="16.831989"
   viewBox="0 0 31.084007 4.4534639"
   version="1.1"
   id="svg4645"
   inkscape:version="0.92.0 r15299"
   sodipodi:docname="comodo.svg">
  <defs
     id="defs4639" />
  <sodipodi:namedview
     id="base"
     pagecolor="#ffffff"
     bordercolor="#666666"
     borderopacity="1.0"
     inkscape:pageopacity="0.0"
     inkscape:pageshadow="2"
     inkscape:zoom="6.8851329"
     inkscape:cx="58.241432"
     inkscape:cy="7.9159937"
     inkscape:document-units="mm"
     inkscape:current-layer="layer1"
     showgrid="false"
     fit-margin-top="0"
     fit-margin-left="0"
     fit-margin-right="0"
     fit-margin-bottom="0"
     units="px"
     inkscape:window-width="1280"
     inkscape:window-height="744"
     inkscape:window-x="-4"
     inkscape:window-y="-4"
     inkscape:window-maximized="1" />
  <metadata
     id="metadata4642">
    <rdf:RDF>
      <cc:Work
         rdf:about="">
        <dc:format>image/svg+xml</dc:format>
        <dc:type
           rdf:resource="http://purl.org/dc/dcmitype/StillImage" />
        <dc:title></dc:title>
      </cc:Work>
    </rdf:RDF>
  </metadata>
  <g
     inkscape:label="Layer 1"
     inkscape:groupmode="layer"
     id="layer1"
     transform="translate(39.396546,-144.19212)">
    <g
       id="g4787"
       transform="translate(0.13229056,-0.13228846)">
      <path
         d="m -16.111393,144.5489 -1.792111,-3.5e-4 0.0035,0.12276 c 0.006,0.26706 0.09631,0.60325 0.546805,0.60325 h 0.527403 l 0.671689,-3.5e-4 c 0.699205,0 1.071386,0.22966 0.9652,1.01071 l -0.08467,0.62477 c -0.104069,0.80857 -0.68333,0.92675 -1.194858,0.92675 h -0.678745 l 0.189795,-1.55434 c 0.02822,-0.22331 -0.08502,-0.58985 -0.509411,-0.58985 h -0.587022 l -0.156987,1.28129 -0.148166,1.12466 c -0.04127,0.30092 0.179211,0.46919 0.652639,0.46919 l 1.377244,-3.5e-4 c 1.402645,0 1.781881,-0.5073 1.974497,-0.8255 0.105481,-0.18203 0.179917,-0.40428 0.222603,-0.66111 0.0092,-0.0504 0.10407,-0.85196 0.10407,-0.85196 0.05785,-0.48506 -0.03246,-0.85442 -0.276225,-1.12853 -0.32385,-0.36336 -0.9144,-0.55104 -1.807281,-0.55104"
         style="fill:#c61b31;fill-opacity:1;fill-rule:nonzero;stroke:none;stroke-width:0.35277778"
         id="path4261"
         inkscape:connector-curvature="0" />
      <path
         d="m -31.642189,146.21318 -0.08714,0.66322 c -0.03881,0.29598 -0.119239,0.52176 -0.245886,0.68968 -0.175331,0.22261 -0.442384,0.3616 -0.813859,0.3616 h -0.207433 -0.0099 c -0.369358,0 -0.636058,-0.12806 -0.749652,-0.33902 -0.07655,-0.15769 -0.09631,-0.38206 -0.05715,-0.68016 l 0.08643,-0.66286 c 0.04727,-0.35631 0.160867,-0.61772 0.347133,-0.79834 0.180623,-0.17674 0.439914,-0.26141 0.750712,-0.26141 h 0.0056 0.19685 7.06e-4 c 0.214136,0 0.497063,0.0353 0.655461,0.24483 0.132291,0.17427 0.173566,0.43039 0.128058,0.78246 m -0.735189,-1.75648 h -7.05e-4 -0.0011 l -0.196497,3.5e-4 c -1.410053,0.0148 -2.1463,0.60114 -2.301875,1.72332 l -0.09313,0.72743 c -0.05927,0.502 0.02999,0.877 0.272697,1.15005 0.300214,0.3362 0.824794,0.57927 1.622072,0.58773 h 0.198261 c 1.378303,-0.0145 2.113845,-0.58314 2.286706,-1.6263 l 0.01199,-0.0751 0.09313,-0.72637 c 0.06174,-0.52141 -0.02999,-0.90946 -0.279048,-1.18957 -0.300919,-0.33726 -0.823736,-0.56303 -1.612547,-0.5715"
         style="fill:#c61b31;fill-opacity:1;fill-rule:nonzero;stroke:none;stroke-width:0.35277778"
         id="path4265"
         inkscape:connector-curvature="0" />
      <path
         d="m -9.7519033,146.21318 -0.087489,0.66322 c -0.038453,0.29598 -0.1185333,0.52176 -0.2451807,0.68968 -0.174978,0.22261 -0.442383,0.3616 -0.813858,0.3616 h -0.207433 -0.01023 c -0.369358,0 -0.636058,-0.12806 -0.749653,-0.33902 -0.07655,-0.15769 -0.09596,-0.38206 -0.05715,-0.68016 l 0.08678,-0.66286 c 0.04692,-0.35631 0.160514,-0.61772 0.346427,-0.79834 0.180623,-0.17674 0.439562,-0.26141 0.75177,-0.26141 h 0.0049 0.19685 7.05e-4 c 0.214489,0 0.497417,0.0353 0.6554613,0.24483 0.1322916,0.17427 0.1742722,0.43039 0.1280583,0.78246 m 0.8777111,-1.18498 c -0.3009194,-0.33726 -0.8240889,-0.56303 -1.6128997,-0.5715 h -7.06e-4 -7.05e-4 l -0.19685,3.5e-4 c -1.410053,0.0148 -2.1463,0.60114 -2.301522,1.72332 l -0.09384,0.72743 c -0.05856,0.502 0.03104,0.877 0.27305,1.15005 0.300214,0.3362 0.824794,0.57927 1.622425,0.58773 h 0.197202 c 1.3793614,-0.0145 2.1145502,-0.58314 2.2881169,-1.6263 l 0.011995,-0.0751 0.092075,-0.72637 c 0.062089,-0.52141 -0.029633,-0.90946 -0.2783417,-1.18957"
         style="fill:#c61b31;fill-opacity:1;fill-rule:nonzero;stroke:none;stroke-width:0.35277778"
         id="path4269"
         inkscape:connector-curvature="0" />
      <path
         d="m -20.288142,146.21318 -0.08678,0.66322 c -0.03845,0.29598 -0.119239,0.52176 -0.245886,0.68968 -0.174978,0.22261 -0.442384,0.3616 -0.813859,0.3616 h -0.207433 -0.01023 c -0.368652,0 -0.636058,-0.12806 -0.748947,-0.33902 -0.07726,-0.15769 -0.09666,-0.38206 -0.05715,-0.68016 l 0.08608,-0.66286 c 0.04763,-0.35631 0.160514,-0.61772 0.347133,-0.79834 0.180622,-0.17674 0.439561,-0.26141 0.751064,-0.26141 h 0.0056 0.196144 7.06e-4 c 0.214488,0 0.497416,0.0353 0.656166,0.24483 0.132292,0.17427 0.173567,0.43039 0.127353,0.78246 m -0.734483,-1.75648 h -0.0014 l -0.197556,3.5e-4 c -1.410053,0.0148 -2.145947,0.60114 -2.301522,1.72332 l -0.09313,0.72743 c -0.05891,0.502 0.03034,0.877 0.27305,1.15005 0.299508,0.3362 0.824794,0.57927 1.621366,0.58773 h 0.198261 c 1.378656,-0.0145 2.113845,-0.58314 2.287411,-1.6263 l 0.012,-0.0751 0.09278,-0.72637 c 0.06138,-0.52141 -0.03034,-0.90946 -0.279047,-1.18957 -0.300214,-0.33726 -0.824089,-0.56303 -1.612194,-0.5715"
         style="fill:#c61b31;fill-opacity:1;fill-rule:nonzero;stroke:none;stroke-width:0.35277778"
         id="path4273"
         inkscape:connector-curvature="0" />
      <path
         d="m -25.482159,144.77112 -1.548342,1.75648 -1.087966,-1.73884 c -0.10407,-0.16122 -0.315736,-0.24236 -0.627592,-0.24236 h -0.491419 l -0.490361,4.02167 h 0.599369 c 0.199672,0 0.340431,-0.0857 0.422275,-0.15769 0.126294,-0.10972 0.210608,-0.26635 0.232481,-0.43251 l 0.217663,-1.76424 0.802923,1.5247 c 0.03563,0.0572 0.13335,0.18592 0.261761,0.18698 h 0.0099 c 0.13582,-0.001 0.249414,-0.12665 0.285045,-0.16863 l 1.218142,-1.536 -0.291042,2.34562 0.578203,7.1e-4 c 0.199319,0 0.340077,-0.0854 0.421922,-0.15734 0.126294,-0.10971 0.210608,-0.26635 0.232128,-0.43251 l 0.425802,-3.43076 h -0.51188 c -0.302331,0 -0.524228,0.0755 -0.658989,0.22472"
         style="fill:#c61b31;fill-opacity:1;fill-rule:nonzero;stroke:none;stroke-width:0.35277778"
         id="path4277"
         inkscape:connector-curvature="0" />
      <path
         d="m -37.067557,144.54818 c -0.200731,0 -0.382411,0.0169 -0.554567,0.0427 -1.00083,0.14887 -1.539875,0.69532 -1.667227,1.6203 l -0.08996,0.70274 c -0.0575,0.48436 0.02857,0.84666 0.26282,1.11019 0.271991,0.30445 0.736952,0.55104 1.427691,0.55104 h 1.213909 c 0.703439,0 0.7874,-0.7359 0.7874,-0.7359 h -1.60902 c -0.218369,-0.002 -0.428978,-0.0187 -0.578203,-0.0737 -0.202494,-0.0744 -0.325261,-0.20496 -0.367241,-0.44273 -0.01623,-0.0935 -0.01164,-0.30128 0.006,-0.43321 l 0.07973,-0.6149 c 0.02399,-0.15769 0.07232,-0.33302 0.09525,-0.38982 0.05962,-0.1464 0.154869,-0.29809 0.311855,-0.40816 0.09172,-0.0642 0.30727,-0.19544 0.851606,-0.19544 h 0.892175 c 0.620889,0 0.734836,-0.73378 0.734836,-0.73307 z"
         style="fill:#c61b31;fill-opacity:1;fill-rule:nonzero;stroke:none;stroke-width:0.35277778"
         id="path4281"
         inkscape:connector-curvature="0" />
    </g>
  </g>
</svg>
