<svg xmlns="http://www.w3.org/2000/svg" height="800" width="1200" viewBox="-4.622913 -1.04722 40.065246 6.28332"><path d="M23.28515.0922l-1.7921-.00035.0035.12276c.006.26706.0963.60325.5468.60325h.5274l.67169-.00035c.6992 0 1.07138.22966.9652 1.01071l-.08467.62477c-.10407.80857-.68333.92675-1.19486.92675h-.67874l.1898-1.55434c.02821-.2233-.08503-.58985-.50942-.58985h-.58702l-.15699 1.2813-.14817 1.12465c-.04127.30092.17922.4692.65264.4692l1.37725-.00036c1.40264 0 1.78188-.5073 1.9745-.8255.10548-.18203.17991-.40428.2226-.6611.0092-.0504.10407-.85197.10407-.85197.05785-.48506-.03246-.85442-.27623-1.12853C24.76855.27988 24.178.0922 23.28512.0922M7.75436 1.75648l-.08714.66322c-.03881.29598-.11924.52176-.24589.68968-.17533.22261-.44238.3616-.81386.3616h-.21733c-.36936 0-.63606-.12806-.74965-.33902-.07655-.15769-.09631-.38206-.05715-.68016l.08643-.66286c.04727-.3563.16086-.61772.34713-.79834.18062-.17674.43991-.2614.75071-.2614h.20315c.21414 0 .49707.0353.65547.24482.13229.17427.17356.4304.12806.78246M7.01909 0h-.0018l-.1965.00035C5.41075.01515 4.6745.6015 4.51893 1.72367l-.09313.72743c-.05927.502.03.877.2727 1.15005.30021.3362.8248.57927 1.62207.58773h.19826c1.3783-.0145 2.11385-.58314 2.2867-1.6263l.012-.0751.09313-.72637c.06174-.5214-.03-.90946-.27905-1.18957-.30092-.33726-.82374-.56303-1.61255-.5715m22.62558 1.75644l-.08749.66322c-.03845.29598-.11853.52176-.24518.68968-.17498.22261-.44238.3616-.81386.3616h-.21766c-.36936 0-.63606-.12806-.74965-.33902-.07655-.15769-.09596-.38206-.05715-.68016l.08678-.66286c.04692-.3563.16051-.61772.34643-.79834.18062-.17674.43956-.2614.75177-.2614h.20245c.21449 0 .49742.0353.65546.24482.1323.17427.17427.4304.12806.78246M30.52231.5715C30.2214.23424 29.69822.00847 28.90941 0h-.0014l-.19686.00035c-1.41005.0148-2.1463.60114-2.30152 1.72332l-.09384.72743c-.05856.502.03104.877.27305 1.15005.30021.3362.8248.57927 1.62242.58773h.1972c1.37937-.0145 2.11456-.58314 2.28812-1.6263l.012-.0751.09207-.72637c.0621-.5214-.02963-.90946-.27834-1.18957M19.1084 1.75648l-.08678.66322c-.03845.29598-.11924.52176-.24588.68968-.17498.22261-.44239.3616-.81386.3616h-.21766c-.36866 0-.63606-.12806-.74895-.33902-.07726-.15769-.09666-.38206-.05715-.68016l.08608-.66286c.04763-.3563.16051-.61772.34713-.79834.18062-.17674.43956-.2614.75107-.2614h.20244c.2145 0 .49742.0353.65617.24482.1323.17427.17357.4304.12735.78246M18.37388 0h-.0014l-.19755.00035c-1.41006.0148-2.14595.60114-2.30153 1.72332l-.09313.72743c-.0589.502.03034.877.27305 1.15005.29951.3362.8248.57927 1.62137.58773h.19826c1.37866-.0145 2.11385-.58314 2.28741-1.6263l.012-.0751.09278-.72637c.06138-.5214-.03034-.90946-.27905-1.18957-.3002-.33726-.82408-.56303-1.61219-.5715m-4.45951.31438L12.36604 2.0709 11.27808.33206C11.174.17084 10.96234.0897 10.65048.0897h-.49141L9.6687 4.11137h.59937c.19967 0 .34043-.0857.42227-.15769.1263-.10972.2106-.26635.23248-.4325l.21766-1.76425.80293 1.5247c.03563.0572.13335.18592.26176.18698h.0099c.13582-.001.24941-.12665.28504-.16863l1.21815-1.536-.29105 2.34562.5782.00071c.19933 0 .34008-.0854.42193-.15734.1263-.1097.2106-.26635.23213-.4325l.4258-3.43077h-.51188c-.30233 0-.52423.0755-.65899.22472M2.32899.09148c-.20073 0-.38241.0169-.55457.0427C.7736.28305.23455.8295.1072 1.75448l-.08996.70274c-.0575.48436.02857.84666.26282 1.1102.272.30444.73696.55103 1.4277.55103h1.2139c.70344 0 .7874-.7359.7874-.7359H2.10003c-.21836-.002-.42897-.0187-.5782-.0737-.2025-.0744-.32526-.20496-.36724-.44273-.01623-.0935-.01164-.30128.006-.4332l.07973-.6149c.024-.1577.07232-.33303.09525-.38983.05962-.1464.15487-.29809.31186-.40816.09172-.0642.30727-.19544.8516-.19544h.89218c.62089 0 .73483-.73378.73483-.73307z" fill="#c61b31"/></svg>