<?xml version="1.0" encoding="utf-8"?>
<!-- Generator: Adobe Illustrator 19.2.1, SVG Export Plug-In . SVG Version: 6.00 Build 0)  -->
<!DOCTYPE svg PUBLIC "-//W3C//DTD SVG 1.1 Tiny//EN" "http://www.w3.org/Graphics/SVG/1.1/DTD/svg11-tiny.dtd">
<svg version="1.1" baseProfile="tiny" id="Layer_1" xmlns="http://www.w3.org/2000/svg" xmlns:xlink="http://www.w3.org/1999/xlink"
	 x="0px" y="0px" viewBox="0 0 140 30" xml:space="preserve">
<g>
	<g>
		<g>
			<path fill="#784D2B" d="M28.5,9.1c0-4.4-3.2-6.6-7.2-6.6h-9.6v20.7h4.1v-7.4h4.3l3.6,7.4h4.7l-4-8C27.2,14.2,28.5,12.3,28.5,9.1z
				 M21.4,11.9H16V6.5h5.3c1.8,0,2.9,0.7,2.9,2.7C24.3,11,23.3,11.9,21.4,11.9z"/>
			<path fill="#784D2B" d="M36.4,7.4c-2.6,0-4,0.5-5.8,1.6l1.6,2.8c1.5-0.7,2.4-1.1,4.3-1.1c1.5,0,2.2,0.9,2.2,1.9v0.7
				c-0.6-0.4-1.6-0.6-3-0.6c-3.5,0-6.3,1.7-6.3,5.1c0,3.8,2.9,5.5,5.8,5.5c1.5,0,2.8-0.6,3.5-1.3v1.1h4.1V12.6
				C42.8,9.3,40.2,7.4,36.4,7.4z M38.7,18.7c-0.5,0.7-1.5,1.5-2.8,1.5c-1.7,0-2.3-1-2.3-2.1c0-1.2,0.9-1.9,2.3-1.9
				c1.5,0,2.1,0.2,2.8,0.6V18.7z"/>
			<path fill="#784D2B" d="M52.1,7.4c-1.5,0-2.6,0.6-3.3,1.3v-1h-4.1v21.1l4.1-2.1v-4.5c0.7,0.7,1.9,1.2,3.3,1.2
				c3.9,0,6.1-3.3,6.1-7.9C58.2,10,55.5,7.4,52.1,7.4z M51.6,19.8c-1.2,0-2.1-0.5-2.8-1.3v-6c0.6-0.7,1.2-1.3,2.6-1.3
				c1.6,0,2.7,1.3,2.7,4.5C54.1,18.3,53.2,19.8,51.6,19.8z"/>
			<rect x="60" y="7.8" fill="#784D2B" width="4.1" height="15.6"/>
			<path fill="#784D2B" d="M62.1,1.8c-1.2,0-2.3,1.1-2.3,2.3s1.1,2.3,2.3,2.3c1.2,0,2.3-1.1,2.3-2.3S63.4,1.8,62.1,1.8z"/>
			<path fill="#784D2B" d="M75.4,3.8v4.9c-0.7-0.7-1.9-1.2-3.3-1.2c-3.9,0-6.1,3.3-6.1,7.9c0,5.8,2.7,8.3,6.1,8.3
				c1.5,0,2.6-0.6,3.3-1.3v1h4.1V1.7L75.4,3.8z M75.4,18.5c-0.6,0.7-1.2,1.3-2.6,1.3c-1.6,0-2.7-1.3-2.7-4.5c0-2.6,0.9-4,2.4-4
				c1.2,0,2.1,0.5,2.8,1.3C75.4,12.6,75.4,18.5,75.4,18.5z"/>
		</g>
		<g>
			<path fill="#EB501E" d="M90.5,10.6c-3.3-0.7-4.1-1.2-4.1-2.4c0-1,0.7-1.8,2.9-1.8c1.9,0,3.4,0.7,4.7,2.1l3-2.9
				c-1.9-2.1-4.3-3.3-7.5-3.3c-4.1,0-7.4,2.3-7.4,6.1c0,4.1,2.7,5.2,6.4,6.2c3.9,0.9,4.6,1.5,4.6,2.8c0,1.6-1.1,2.2-3.6,2.2
				c-1.9,0-3.9-0.7-5.2-2.3l-3,2.7c1.6,2.3,4.6,3.8,8,3.8c5.6,0,8.1-2.7,8.1-6.6C97.4,12.5,93.8,11.4,90.5,10.6z"/>
			<path fill="#EB501E" d="M107.5,10.6c-3.3-0.7-4.1-1.2-4.1-2.4c0-1,0.7-1.8,2.9-1.8c1.9,0,3.4,0.7,4.7,2.1l3-2.9
				c-1.9-2.1-4.3-3.3-7.5-3.3c-4.1,0-7.4,2.3-7.4,6.1c0,4.1,2.7,5.2,6.4,6.2c3.9,0.9,4.6,1.5,4.6,2.8c0,1.6-1.1,2.2-3.6,2.2
				c-1.9,0-3.9-0.7-5.2-2.3l-3,2.7c1.6,2.3,4.6,3.8,8,3.8c5.6,0,8.1-2.7,8.1-6.6C114.3,12.5,110.8,11.4,107.5,10.6z"/>
			<polygon fill="#EB501E" points="126,19.2 121.3,19.2 121.3,2.5 117.1,2.5 117.1,23.2 128.4,23.2 			"/>
		</g>
	</g>
</g>
</svg>
